<?xml version="1.0" encoding="UTF-8"?>
<!DOCTYPE svg PUBLIC "-//W3C//DTD SVG 1.1//EN" "http://www.w3.org/Graphics/SVG/1.1/DTD/svg11.dtd">
<!-- Creator: CorelDRAW 2018 (64-Bit) -->
<svg xmlns="http://www.w3.org/2000/svg" xml:space="preserve" width="100%" height="100%" version="1.1" style="shape-rendering:geometricPrecision; text-rendering:geometricPrecision; image-rendering:optimizeQuality; fill-rule:evenodd; clip-rule:evenodd"
viewBox="0 0 5500 5500"
 xmlns:xlink="http://www.w3.org/1999/xlink">
 <defs>
  <style type="text/css">
   <![CDATA[
    .fil0 {fill:none;fill-rule:nonzero}
    .fil2 {fill:#211F1F}
    .fil1 {fill:#FBBA00}
   ]]>
  </style>
 </defs>
 <g id="Layer_x0020_1">
  <metadata id="CorelCorpID_0Corel-Layer"/>
  <rect class="fil0" x="-0" y="-0" width="5500" height="5500"/>
  <g id="_2208949739792">
   <path class="fil1" d="M1981.41 1150.39c236.18,0 427.66,187.75 427.66,419.36 0,290.42 -217.36,384.89 -217.36,509.01 0,15.95 -0.71,30.98 -2.04,45.14l-416.54 0c-1.33,-14.16 -2.04,-29.19 -2.04,-45.14 0,-124.12 -217.36,-218.59 -217.36,-509.01 0,-231.61 191.47,-419.36 427.68,-419.36zm1691.92 2616.91l-1224.33 0 0 -597.7 1224.33 0 0 597.7zm-1692.84 -1823.76c4.84,0 9.74,-0.58 14.69,-1.71l2.8 -0.66c34.31,-8.07 55.62,-42.31 47.54,-76.55 -8.06,-34.22 -42.43,-55.41 -76.76,-47.39l-2.82 0.67c-34.34,8.02 -55.62,42.29 -47.55,76.51 6.92,29.35 33.13,49.13 62.1,49.13z"/>
   <path class="fil2" d="M1000.61 589.63l0 100 0 4120.74 -300 0 0 -4120.74 0 -400 3698.78 0 0 416.08 -107.55 -116.08 -150 0 -3041.23 0 -100 0zm1422.52 1365.56c-13.27,-13.03 -34.81,-13.03 -48.09,0 -13.29,13.02 -13.29,34.13 0,47.16l64.07 62.84c6.65,6.51 15.35,9.77 24.05,9.77 8.7,0 17.41,-3.26 24.05,-9.77 13.28,-13.02 13.28,-34.13 0,-47.17l-64.08 -62.83zm-444.94 -838.11c-194.87,2.59 -370.71,120.86 -434.63,310.47 -30.42,88.18 -29.49,190.15 -6.1,279.87 13.93,80.96 81.92,178.68 131.94,244.11 20.58,26.97 55.6,70.02 65.22,105.67l0.48 1.82c4.19,16.91 3,48.63 4.57,66.17 0,156.21 -44.4,321.29 85.93,428.15 10.96,9.03 22.7,17.02 35,23.95 88.69,49.57 197.96,41.39 277.75,-23.95 131.19,-107.61 85.91,-281.9 85.91,-428.15 1.35,-14.86 2.04,-30.46 2.04,-46.43 0,-46.86 47.98,-101.03 72.59,-132.91 2.57,-3.36 5.14,-6.73 7.68,-10.12 52.56,-69.37 96.15,-138.65 119.22,-225.13 77.47,-296.41 -121.23,-597.94 -447.6,-593.52zm-28.87 863.15l65.27 0 0 110.32 143.51 0c2.14,-91.56 48.37,-131.89 99.3,-201.79 56.49,-75.23 118.22,-169.93 118.22,-319.01 0,-513.24 -787.3,-513.24 -787.3,0 0,260.6 213.59,352.82 217.52,520.8l143.48 0 0 -110.32zm32.1 561.23c-69.17,0 -131.53,-41 -161.07,-101.91l322.14 0c-29.57,60.91 -91.93,101.91 -161.07,101.91zm174.25 -310.31l-348.52 0 0 -75 348.52 0 0 75zm-348.52 66.7l348.52 0 0 74.99 -348.52 0 0 -74.99zm-266.35 -342.66l-64.1 62.83c-13.27,13.04 -13.27,34.15 0,47.17 6.65,6.51 15.35,9.77 24.07,9.77 8.7,0 17.4,-3.26 24.04,-9.77l64.08 -62.84c13.29,-13.03 13.29,-34.13 0,-47.16 -13.28,-13.03 -34.82,-13.03 -48.09,0zm-115.55 -418.79l-90.63 0c-18.78,0 -34.01,14.93 -34.01,33.35 0,18.43 15.23,33.35 34.01,33.35l90.63 0c18.78,0 34.01,-14.92 34.01,-33.35 0,-18.42 -15.23,-33.35 -34.01,-33.35zm139.01 -329.08c6.65,6.51 15.35,9.77 24.05,9.77 8.7,0 17.4,-3.26 24.05,-9.77 13.28,-13.03 13.28,-34.15 0,-47.16l-64.1 -62.84c-13.27,-13.02 -34.81,-13.02 -48.09,0 -13.29,13.02 -13.29,34.14 0,47.16l64.09 62.84zm417.7 -150.12c18.79,0 34.02,-14.93 34.02,-33.35l0 -88.87c0,-18.42 -15.23,-33.35 -34.02,-33.35 -18.78,0 -34.01,14.93 -34.01,33.35l0 88.87c0,18.42 15.23,33.35 34.01,33.35zm393.66 159.89c8.7,0 17.4,-3.26 24.05,-9.77l64.08 -62.84c13.28,-13.02 13.28,-34.14 0,-47.17 -13.28,-13.03 -34.82,-13.01 -48.1,0l-64.08 62.84c-13.28,13.02 -13.28,34.14 -0.01,47.17 6.64,6.51 15.36,9.77 24.06,9.77zm253.67 319.31l-90.62 0c-18.79,0 -34.02,14.93 -34.02,33.35 0,18.43 15.23,33.35 34.02,33.35l90.62 0c18.79,0 34.02,-14.92 34.02,-33.35 0,-18.42 -15.23,-33.35 -34.02,-33.35zm-180.29 1733.19l1224.33 0 0 -99.99 -1224.33 0 0 99.99zm0 250l1224.33 0 0 -99.99 -1224.33 0 0 99.99zm0 247.71l1021.49 0 0 -99.98 -1021.49 0 0 99.98zm1172.36 0c3.77,0 7.59,-0.45 11.44,-1.33l2.18 -0.52c26.72,-6.3 43.32,-33.05 37.02,-59.8 -6.27,-26.73 -33.04,-43.28 -59.77,-37.02l-2.21 0.53c-26.73,6.26 -43.3,33.03 -37.02,59.76 5.39,22.93 25.8,38.38 48.36,38.38zm103.82 465.28c-172.41,141.17 -392.83,225.9 -633.06,225.9 -552.29,0 -1000,-447.71 -1000,-1000 0,-552.29 447.71,-1000 1000,-1000 552.29,0 1000,447.71 1000,1000 0,258.05 -97.77,493.26 -258.25,670.65l864.43 864.44 -106.07 106.06 -867.05 -867.05zm-633.06 -1624.1c469.44,0 850,380.55 850,850 0,469.45 -380.56,850 -850,850 -469.44,0 -850,-380.55 -850,-850 0,-469.45 380.56,-850 850,-850zm-1791.51 1804.3l529.33 0 0 -99.99 -529.33 0 0 99.99zm0 199.98l1058.67 0 0 -99.99 -1058.67 0 0 99.99zm0.01 197.63l1711.9 0 0 -99.99 -1711.9 0 0 99.99zm0 199.98l2322.87 0 0 -99.99 -2322.87 0 0 99.99zm1679.98 -2917.42l1361.24 0 0 -99.99 -1361.24 0 0 99.99zm0 -199.98l1056.68 0 0 -99.99 -1056.68 0 0 99.99zm0 -197.63l831.78 0 0 -99.99 -831.78 0 0 99.99zm0 -199.98l680.62 0 0 -99.99 -680.62 0 0 99.99zm-1979.99 3415.01l0 300 0 100 100 0 3698.78 0 100 0 0 -100 0 -3815 0 -150 -400 -431.73 0 -524.01 0 -100 -100 0 -3698.78 0 -100 0 0 100 0 4520.74 0 100 100 0 300 0zm3141.23 -3515l0 -100 0 -605.74 -3041.23 0 0 4520.74 3698.78 0 0 -3815 -557.55 0 -100 0zm100 -705.74l0 605.74 557.55 0 -557.55 -605.74z"/>
  </g>
 </g>
</svg>
