<?xml version="1.0" encoding="UTF-8"?>
<!DOCTYPE svg PUBLIC "-//W3C//DTD SVG 1.1//EN" "http://www.w3.org/Graphics/SVG/1.1/DTD/svg11.dtd">
<!-- Creator: CorelDRAW 2018 (64-Bit) -->
<svg xmlns="http://www.w3.org/2000/svg" xml:space="preserve" width="100%" height="100%" version="1.1" style="shape-rendering:geometricPrecision; text-rendering:geometricPrecision; image-rendering:optimizeQuality; fill-rule:evenodd; clip-rule:evenodd"
viewBox="0 0 5500 5500"
 xmlns:xlink="http://www.w3.org/1999/xlink">
 <defs>
  <style type="text/css">
   <![CDATA[
    .fil0 {fill:none;fill-rule:nonzero}
    .fil2 {fill:#211F1F}
    .fil1 {fill:#FBBA00;fill-rule:nonzero}
   ]]>
  </style>
 </defs>
 <g id="Layer_x0020_1">
  <metadata id="CorelCorpID_0Corel-Layer"/>
  <rect class="fil0" x="-0" y="-0" width="5500" height="5500"/>
  <g id="_2208957503392">
   <path class="fil1" d="M1600.55 2198.71l-257.55 -257.54 70.69 -70.69 186.86 186.85 390.81 -390.81 70.69 70.69 -390.81 390.81 -70.69 70.69zm0 1022.18l-257.55 -257.54 70.69 -70.69 186.86 186.85 390.81 -390.81 70.69 70.69 -390.81 390.81 -70.69 70.69zm2641.01 1027.84l-1777.61 0 0 -500.01 1777.61 0 0 500.01z"/>
   <path class="fil2" d="M700.61 5310.37l0 -100 0 -4920.74 0 -100 100 0 3898.78 0 100 0 0 100 0 4215 0 150 -607.55 655.74 -150 0 -3241.23 0 -100 0zm639.1 -4213.31c0,-17.18 4.2,-33.39 11.63,-47.64l-92.9 0 0 -55.6 183.79 0 0.73 -0.01c57.02,0 103.25,46.23 103.25,103.25 0,57.04 -46.23,103.26 -103.25,103.26 -57.02,0 -103.25,-46.22 -103.25,-103.26l0 0zm1659.99 -226.95l89.72 0c10.45,0 20.17,-4.79 29.19,-14.37 8.99,-9.58 13.49,-26.86 13.49,-51.83 0,-25.55 -5.23,-42.97 -15.68,-52.26 -10.45,-9.29 -20.9,-13.94 -31.36,-13.94l-85.36 0 0 132.4 0 0 0 0zm1004.93 103.66l-54.88 -191.63 -57.49 191.63 112.37 0zm-132.4 -384.14l155.05 0 214.28 618.45 -172.47 0 -37.46 -121.07 -164.63 0 -36.58 121.07 -173.34 0 215.15 -618.45zm-2296.64 618.45l0 -618.45 169.85 0 0 235.19 188.15 -235.19 191.63 0 -224.73 277 240.41 341.45 -195.11 0 -153.31 -227.34 -47.04 48.78 0 178.56 -169.85 0 0 0 0 0zm594.68 -337.97l107.14 0c10.45,0 20.18,-5.8 29.19,-17.42 8.99,-11.61 13.49,-27.87 13.49,-48.78 0,-21.48 -5.21,-37.89 -15.68,-49.21 -10.45,-11.33 -20.9,-16.99 -31.35,-16.99l-102.79 0 0 132.4 0 0zm563.11 103.66l-54.88 -191.63 -57.49 191.63 112.37 0zm-132.4 -384.14l155.05 0 214.29 618.45 -172.47 0 -37.47 -121.07 -164.63 0 -36.58 121.07 -24.8 0 -148.54 0 -43.09 0 -108.88 -189.89 -63.59 0 0 189.88 -240.4 -341.44 224.74 -277 129.78 0c30.19,0 58.06,6.24 83.62,18.73 25.55,12.48 47.47,28.74 65.77,48.78 18.29,20.03 32.66,42.97 43.11,68.81 10.46,25.84 15.68,51.83 15.68,77.96 0,36.01 -7.84,69.54 -23.52,100.61 -15.68,31.07 -37.45,56.47 -65.33,76.22l38.13 66.34 159.14 -457.45 0 0 -0.01 0zm657 618.45l0 -267.28c-3.05,3.98 -6.25,7.86 -9.58,11.63 -17.72,20.03 -39.2,36 -64.46,47.9 -25.26,11.91 -52.99,17.86 -83.19,17.86l-101.05 0 0 189.89 0 0 -214.3 -618.45 310.99 0c30.2,0 58.07,6.24 83.63,18.73 25.55,12.48 47.47,28.74 65.76,48.78 4.28,4.69 8.35,9.54 12.2,14.55l0 -82.06 169.86 0 0 235.19 188.15 -235.19 191.63 0 -224.73 277 109.49 155.52 -64.53 185.46 -152.98 -226.87 -47.04 48.78 0 178.56 -169.86 0 0 0 0.01 0zm-1870.63 -111.02c0,-30.71 24.9,-55.6 55.61,-55.61 30.71,0 55.61,24.9 55.61,55.61 0,30.71 -24.9,55.61 -55.61,55.61 -30.71,0 -55.61,-24.9 -55.61,-55.61zm157.71 -170.26l-204.42 59.75 0 -65.82 146.51 -31.73 -146.51 -32.07 0 -59.74 204.42 59.74 0 69.87 0 0 0 0zm-205.35 -226.14c0,-57.02 46.23,-103.26 103.25,-103.26 57.02,0 103.25,46.24 103.25,103.26 0,57.02 -46.23,103.25 -103.25,103.25 -57.02,0 -103.25,-46.23 -103.25,-103.25zm47.64 0c0,-30.71 24.9,-55.62 55.61,-55.62 30.71,0 55.61,24.91 55.61,55.62 0,30.71 -24.9,55.61 -55.61,55.61 -30.71,0 -55.61,-24.9 -55.61,-55.61zm1076.6 2054.13l1777.61 0 0 -99.99 -1777.61 0 0 99.99zm0 250l1261.06 0 0 -99.99 -1261.06 0 0 99.99zm0 250l962.91 0 0 -99.98 -962.91 0 0 99.98zm0 -1022.18l962.91 0 0 -99.98 -962.91 0 0 99.98zm0 -250l1261.06 0 0 -99.99 -1261.06 0 0 99.99zm0 -250l1777.61 0 0 -99.99 -1777.61 0 0 99.99zm0 2116.11l1777.61 0 0 -100 -1777.61 0 0 100zm0 200l1777.61 0 0 -100 -1777.61 0 0 100zm0 200l1559.82 0 0 -99.99 -1559.82 0 0 99.99zm1717.39 7.93c4.37,0 8.79,-0.52 13.25,-1.54l2.53 -0.61c30.96,-7.29 50.18,-38.28 42.89,-69.27 -7.27,-30.97 -38.28,-50.14 -69.25,-42.89l-2.55 0.61c-30.97,7.25 -50.17,38.26 -42.89,69.24 6.24,26.56 29.89,44.46 56.02,44.46zm-2738.34 -429.34l350.73 0 0 350.74 -350.73 0 0 -350.74zm0 -100l350.73 0c55,0 100,45 100,100l0 350.74c0,55 -45,100 -100,100l-350.73 0c-55,0 -100,-45 -100,-100l0 -350.74c0,-55 45,-100 100,-100zm2598.84 777.32l0 100 0 605.74 -3241.23 0 0 -4920.74 3898.78 0 0 4215 -557.55 0 -100 0zm100 705.74l0 -605.74 557.55 0 -557.55 605.74z"/>
  </g>
 </g>
</svg>
