<?xml version="1.0" encoding="UTF-8"?>
<!DOCTYPE svg PUBLIC "-//W3C//DTD SVG 1.1//EN" "http://www.w3.org/Graphics/SVG/1.1/DTD/svg11.dtd">
<!-- Creator: CorelDRAW 2018 (64-Bit) -->
<svg xmlns="http://www.w3.org/2000/svg" xml:space="preserve" width="100%" height="100%" version="1.1" style="shape-rendering:geometricPrecision; text-rendering:geometricPrecision; image-rendering:optimizeQuality; fill-rule:evenodd; clip-rule:evenodd"
viewBox="0 0 5500 5500"
 xmlns:xlink="http://www.w3.org/1999/xlink">
 <defs>
  <style type="text/css">
   <![CDATA[
    .fil0 {fill:none;fill-rule:nonzero}
    .fil1 {fill:#211F1F}
    .fil3 {fill:#FBBA00}
    .fil2 {fill:#FBBA00;fill-rule:nonzero}
   ]]>
  </style>
 </defs>
 <g id="Layer_x0020_1">
  <metadata id="CorelCorpID_0Corel-Layer"/>
  <rect class="fil0" x="-0" y="-0" width="5500" height="5500"/>
  <g id="_2212963556128">
   <path class="fil1" d="M2858.63 189.63l1918.11 0 0 2300.92 -1918.11 0 0 -2300.92zm-934.39 5120.74l140.92 0 2351.72 0 274.11 -91.34c51.33,-17.21 85.86,-65.11 85.86,-119.23 0,-54.12 -34.53,-102.02 -85.91,-119.23l-274.06 -91.34 -2430.08 0 -316.09 0 -105.28 0 -161.59 0 -470.12 0c-116.13,0 -210.57,94.44 -210.57,210.57 0,116.13 94.44,210.57 210.57,210.57l62.33 0 148.24 0 631.7 0 148.25 0zm-1095.8 -210.57c0,-58.07 47.21,-105.29 105.28,-105.29l210.57 0 0 210.57 -210.57 0c-58.07,0 -105.28,-47.21 -105.28,-105.28zm-105.29 -4910.16l1918.12 0 0 1964.26 -1918.12 0 0 -1964.26zm1810.07 108.05l0 1147.43 -438.66 -434.44c-12.48,-13.26 -29,-21.72 -46.67,-24.22 -5.9,-0.87 -11.93,-1.05 -17.98,-0.54 -24.18,2.05 -46.12,15.05 -59.55,35.29l-360.06 542.62 -286.9 -205.43c-33.34,-23.85 -79.39,-18.47 -106.32,12.48l-387.54 410.86 0 -1484.05 1703.68 0zm325.41 2410.11l1918.11 0 0 1964.27 -1918.11 0 0 -1964.27zm1810.07 108.06c0,562.72 0,1185.43 0,1748.15l-1703.67 0c0,-562.72 0,-1185.43 0,-1748.15l1703.67 0zm-3945.55 -444.71l1918.11 0 0 2300.92 -1918.11 0 0 -2300.92zm328.14 401.71l680.62 0 0 -99.99 -680.62 0 0 99.99zm0 199.98l831.78 0 0 -99.99 -831.78 0 0 99.99zm0 197.63l1056.68 0 0 -99.99 -1056.68 0 0 99.99zm0 199.98l1261.84 0 0 -99.99 -1261.84 0 0 99.99zm0 199.98l1261.84 0 0 -99.99 -1261.84 0 0 99.99zm0 199.98l1261.84 0 0 -99.99 -1261.84 0 0 99.99zm1261.84 499.95l-680.62 0 0 99.99 680.62 0 0 -99.99zm0 -199.98l-831.78 0 0 99.99 831.78 0 0 -99.99zm0 -197.63l-1056.68 0 0 99.99 1056.68 0 0 -99.99zm220.09 -1393.54c0,902.41 0,1182.4 0,2084.8l-1703.67 0 0 -2084.8 1703.67 0zm653.55 -1887.87l680.62 0 0 -99.99 -680.62 0 0 99.99zm0 199.98l831.78 0 0 -99.99 -831.78 0 0 99.99zm0 197.63l1056.68 0 0 -99.99 -1056.68 0 0 99.99zm0 199.98l1261.84 0 0 -99.99 -1261.84 0 0 99.99zm0 199.98l1261.84 0 0 -99.99 -1261.84 0 0 99.99zm0 199.98l1261.84 0 0 -99.99 -1261.84 0 0 99.99zm1261.84 499.95l-680.62 0 0 99.99 680.62 0 0 -99.99zm0 -199.98l-831.78 0 0 99.99 831.78 0 0 -99.99zm0 -197.63l-1056.68 0 0 99.99 1056.68 0 0 -99.99zm220.09 -1393.54c0,902.41 0,1182.4 0,2084.8l-1703.67 0 0 -2084.8 1703.67 0z"/>
   <path class="fil2" d="M1348.13 1168.16c161.91,0 293.66,-131.74 293.66,-293.67 0,-161.91 -131.75,-293.66 -293.66,-293.66 -161.92,0 -293.67,131.75 -293.67,293.66 0,161.93 131.75,293.67 293.67,293.67z"/>
   <path class="fil3" d="M3230.64 4332.17l0 -1284.46 352.77 0 0 488.46 390.77 -488.46 398 0 -466.75 575.29 499.31 709.17 -405.24 0 -318.4 -472.18 -97.69 101.31 0 370.87 -352.77 0zm1125.07 872.91l-3106.14 0 0 -210.57 3106.14 0 0 210.57z"/>
  </g>
 </g>
</svg>
