<?xml version="1.0" encoding="UTF-8"?>
<!DOCTYPE svg PUBLIC "-//W3C//DTD SVG 1.1//EN" "http://www.w3.org/Graphics/SVG/1.1/DTD/svg11.dtd">
<!-- Creator: CorelDRAW 2018 (64-Bit) -->
<svg xmlns="http://www.w3.org/2000/svg" xml:space="preserve" width="100%" height="100%" version="1.1" style="shape-rendering:geometricPrecision; text-rendering:geometricPrecision; image-rendering:optimizeQuality; fill-rule:evenodd; clip-rule:evenodd"
viewBox="0 0 5500 5500"
 xmlns:xlink="http://www.w3.org/1999/xlink">
 <defs>
  <style type="text/css">
   <![CDATA[
    .fil0 {fill:none;fill-rule:nonzero}
    .fil4 {fill:#211F1F}
    .fil3 {fill:#FBBA00}
    .fil2 {fill:#211F1F;fill-rule:nonzero}
    .fil1 {fill:#B2B3B3;fill-rule:nonzero}
   ]]>
  </style>
 </defs>
 <g id="Layer_x0020_1">
  <metadata id="CorelCorpID_0Corel-Layer"/>
  <rect class="fil0" x="-0" y="-0" width="5500" height="5500"/>
  <g id="_2208949724304">
   <path class="fil1" d="M994.33 2674.18l336.09 0 0 -100 -336.09 0 0 100zm536.72 -2126.49c4.37,0 8.79,-0.52 13.25,-1.54l2.53 -0.61c30.96,-7.29 50.18,-38.28 42.89,-69.27 -7.27,-30.97 -38.28,-50.14 -69.25,-42.89l-2.55 0.61c-30.97,7.26 -50.17,38.27 -42.89,69.24 6.24,26.56 29.89,44.46 56.02,44.46zm-235.58 0c4.37,0 8.79,-0.52 13.25,-1.54l2.53 -0.61c30.96,-7.29 50.18,-38.28 42.89,-69.27 -7.27,-30.97 -38.28,-50.14 -69.25,-42.89l-2.55 0.61c-30.97,7.26 -50.17,38.27 -42.89,69.24 6.24,26.56 29.89,44.46 56.02,44.46zm-235.58 0c4.37,0 8.79,-0.52 13.25,-1.54l2.53 -0.61c30.96,-7.29 50.18,-38.28 42.89,-69.27 -7.27,-30.97 -38.28,-50.14 -69.25,-42.89l-2.55 0.61c-30.97,7.26 -50.17,38.27 -42.89,69.24 6.24,26.56 29.89,44.46 56.02,44.46zm-57.56 243.68l2942.75 0 0 -99.99 -2942.75 0 0 99.99zm-241.23 -601.74l3409.22 0 0 401.28 -99.49 0 0 -301.79 -3210.24 0 0 2942.75 269.51 0 0 99.49 -369 0 0 -3141.73zm233.23 747.27l336.09 0 0 97.93 -184.16 0 184.16 184.16 0 141.41 -236.69 -236.69 0 222.8 0 741.62 0 84.85 236.69 -236.69 0 141.41 -184.16 184.16 184.16 0 0 97.93 -336.09 0 0 -1422.89zm0 2137.28l336.09 0 0 -100 -336.09 0 0 100zm0 -200l336.09 0 0 -100 -336.09 0 0 100z"/>
   <path class="fil2" d="M1415.92 3260.02l7.77 6.09c2.79,2.21 5.73,4.11 8.78,5.75l-16.55 -11.84z"/>
   <path class="fil3" d="M1429.17 1844.34l3210.24 0 0 1326.85 -3210.24 0 0 -1326.85zm685.03 1624.29l-551.3 0 0 -100 551.3 0 0 100zm2391.47 0l-100 0 0 -100 100 0 0 100zm0 200l-1012.62 0 0 -100 1012.62 0 0 100zm-1312.62 0l-100 0 0 -100 100 0 0 100zm-1483.25 200l-146.89 0 0 -100 146.89 0 0 100zm1991.42 0l-408.17 0 0 -100 408.17 0 0 100zm-1333.88 -2207.84l408.18 0 0 -100 -408.18 0 0 100zm1991.42 0l146.89 0 0 -100 -146.89 0 0 100zm-1483.24 -200l100 0 0 -100 -100 0 0 100zm-1312.62 0l1012.62 0 0 -100 -1012.62 0 0 100zm0 -200l100 0 0 -100 -100 0 0 100zm2391.47 0l551.3 0 0 -100 -551.3 0 0 100z"/>
   <path class="fil4" d="M5207.6 4336.58l0 -3100.52 -237.24 0 0 -241.24 487.24 0 0 3341.76 0 250.89 -250 0 -1724.05 0 0 472.9 968.74 0 0 250 -3404.57 0 0 -250 968.74 0 0 -472.9 -1974.05 0 0 0 0 -3592.65 550.08 0 0 241.24 -300.08 0 0 3100.52 4915.19 0zm-3877.92 -3399.68l3409.22 0 0 3141.73 -3409.22 0 0 -3141.73zm984.55 2531.73l-100 0 0 -100 100 0 0 100zm679.09 0l-579.09 0 0 -100 579.09 0 0 100zm399.72 0l-299.71 0 0 -100 299.71 0 0 100zm200.01 0l-100 0 0 -100 100 0 0 100zm712.59 0l-612.59 0 0 -100 612.59 0 0 100zm-2191.44 200l-551.28 0 0 -100 551.28 0 0 100zm200.03 0l-100 0 0 -100 100 0 0 100zm678.79 0l-578.79 0 0 -100 578.79 0 0 100zm400.03 0l-100 0 0 -100 100 0 0 100zm1112.62 200l-504.43 0 0 -100 504.43 0 0 100zm-604.43 0l-100 0 0 -100 100 0 0 100zm-708.19 0l-100 0 0 -100 100 0 0 100zm-200.03 0l-578.79 0 0 -100 578.79 0 0 100zm-678.79 0l-504.42 0 0 -100 504.42 0 0 100zm-551.3 -2607.84l612.59 0 0 -100 -612.59 0 0 100zm712.59 0l100 0 0 -100 -100 0 0 100zm200.01 0l299.71 0 0 -100 -299.71 0 0 100zm399.72 0l579.09 0 0 -100 -579.09 0 0 100zm679.09 0l100 0 0 -100 -100 0 0 100zm200.03 200l551.28 0 0 -100 -551.28 0 0 100zm-200.03 0l100 0 0 -100 -100 0 0 100zm-678.79 0l578.79 0 0 -100 -578.79 0 0 100zm-400.03 0l100 0 0 -100 -100 0 0 100zm-1112.62 200l504.43 0 0 -100 -504.43 0 0 100zm604.43 0l100 0 0 -100 -100 0 0 100zm708.19 0l100 0 0 -100 -100 0 0 100zm200.03 0l578.79 0 0 -100 -578.79 0 0 100zm678.79 0l504.42 0 0 -100 -504.42 0 0 100zm-843.09 1333.91l342.03 -939.67 -93.97 -34.21 -342.03 939.67 93.97 34.21zm912.03 -486.95l-367.29 367.33 -70.69 -70.69 296.6 -296.64 -296.61 -296.61 70.69 -70.69 296.61 296.61 70.69 70.69zm-1577.99 0l367.29 367.33 70.69 -70.69 -296.6 -296.64 296.61 -296.61 -70.69 -70.69 -296.61 296.61 -70.69 70.69zm-816.12 -1471.36l3210.24 0 0 2942.75 -3210.24 0 0 -2942.75zm1804.38 4023.98l0 -472.9 -967.09 0 0 472.9 967.09 0z"/>
  </g>
 </g>
</svg>
