<?xml version="1.0" encoding="UTF-8"?>
<!DOCTYPE svg PUBLIC "-//W3C//DTD SVG 1.1//EN" "http://www.w3.org/Graphics/SVG/1.1/DTD/svg11.dtd">
<!-- Creator: CorelDRAW 2018 (64-Bit) -->
<svg xmlns="http://www.w3.org/2000/svg" xml:space="preserve" width="100%" height="100%" version="1.1" style="shape-rendering:geometricPrecision; text-rendering:geometricPrecision; image-rendering:optimizeQuality; fill-rule:evenodd; clip-rule:evenodd"
viewBox="0 0 5500 5500"
 xmlns:xlink="http://www.w3.org/1999/xlink">
 <defs>
  <style type="text/css">
   <![CDATA[
    .fil0 {fill:none;fill-rule:nonzero}
    .fil1 {fill:#211F1F;fill-rule:nonzero}
    .fil2 {fill:#FBBA00;fill-rule:nonzero}
   ]]>
  </style>
 </defs>
 <g id="Layer_x0020_1">
  <metadata id="CorelCorpID_0Corel-Layer"/>
  <rect class="fil0" x="-0" y="-0" width="5500" height="5500"/>
  <g id="_2208949773296">
   <path class="fil1" d="M2922.53 1941.6l216.86 439.59 484.87 70.47c101.93,14.5 172.81,108.9 158.31,210.83 -6.45,45.32 -28.7,84.49 -60.37,112.76l-345.15 336.4 82.94 483.64c17.32,101.53 -50.94,197.89 -152.47,215.21 -44.78,7.64 -88.54,-1.38 -124.97,-22.54l-427.08 -224.52 -433.9 228.09c-91.05,47.94 -203.74,12.99 -251.68,-78.06 -19.86,-37.72 -25.48,-79.15 -18.8,-118.15l-0.17 -0.03 82.95 -483.65 -350.77 -341.91c-73.73,-71.71 -75.35,-189.63 -3.64,-263.36 29.9,-30.75 67.85,-48.94 107.27,-54.52l-0.03 -0.19 484.86 -70.46 216.85 -439.6c45.53,-92.26 157.24,-130.15 249.5,-84.62 38.24,18.87 67.12,49.11 84.62,84.62zm-2093.87 1917.92c-4.07,-13.07 -14.84,-22.57 -27.81,-24.54l-101.25 -15.4 -45.13 -95.96c-10.06,-17.86 -32.05,-23.81 -49.13,-13.31 -5.27,3.25 -9.63,7.82 -12.73,13.31l-45.35 95.96 -101.22 15.4c-18.83,2.83 -31.92,21.14 -29.2,40.85 1.09,7.88 4.61,15.12 10.04,20.68l73.19 74.69 -17.22 105.46c-3.3,19.62 9.22,38.34 27.94,41.81 7.57,1.38 15.35,0.1 22.12,-3.64l90.53 -49.94 90.51 49.8c16.86,9.27 37.74,2.5 46.6,-15.16 3.52,-7.01 4.74,-15.04 3.45,-22.87l-17.25 -105.46 73.25 -74.69c9.38,-9.59 12.74,-23.94 8.66,-36.99zm90.01 -474.11c-57.25,0 -103.94,46.69 -103.94,103.94 0,57.25 46.69,103.94 103.94,103.94 57.24,0 103.93,-46.69 103.93,-103.94 0,-57.25 -46.69,-103.94 -103.93,-103.94zm258.2 -69.07c-35.02,14.26 -57.21,56.25 -42.96,91.31 14.26,35.01 48.97,58.59 85.42,51.63l7.28 -1.4 763.73 -268.35 -116.31 -113.38 -697.16 240.19zm790.53 57.95l-1092.38 891c-32.25,28.83 -38.46,75.34 -9.63,107.59 18.75,19.07 43.41,29.46 72.55,23.9 14.56,-2.81 21.85,-4.2 35.04,-14.27l955.12 -779.06 39.3 -229.16zm-1664.61 -442.1l1432.06 8.31 -156.16 -152.2 -1274.62 -7.4c-37.82,-0.33 -77.36,29.9 -76.28,75 0.13,5.64 0.7,11.09 1.68,16.29 6.86,36.37 33.86,60.93 73.32,60zm1180.91 1790.68l-103.29 170.82c-23.56,34.72 -7.92,77.03 26.79,100.6 17.37,11.79 33.35,16.3 55.2,12.1 21.86,-4.19 35.02,-14.26 46.81,-31.6l103.29 -170.82c23.57,-34.72 7.92,-77.04 -26.8,-100.62 -36.12,-30.84 -78.44,-15.2 -102,19.52zm932.43 -326.66c33.82,69.09 38.41,83.07 -18.23,114.39 -155.12,85.78 -149.13,196.58 -124.28,243.17 1.5,2.82 3.23,5.4 5.17,7.81 14.54,18.02 40.26,23.77 61.44,12.5 23.99,-12.81 33.09,-42.62 20.28,-66.63 -0.24,-0.48 -21.41,-51.8 85.05,-110.66 140.41,-77.68 89.45,-181.71 58.99,-243.9 -33.9,-69.21 -47.64,-104.79 9.88,-156.27 20.26,-18.14 22.09,-49.18 3.85,-69.52 -18.15,-20.26 -49.27,-21.99 -69.52,-3.84 -115.64,103.49 -65.68,205.46 -32.63,272.95zm419.2 -630.1l191.18 1083.99c8.36,43.71 43.08,67.28 86.79,58.92 43.72,-8.36 67.3,-43.08 58.93,-86.79l-168.96 -967.83 -167.94 -88.29zm331.38 1336.39c-57.25,0 -103.94,46.68 -103.94,103.93 0,57.25 46.69,103.94 103.94,103.94 57.24,0 103.93,-46.69 103.93,-103.94 0,-57.25 -46.69,-103.93 -103.93,-103.93zm356.17 -546.06c0,33.58 27.22,60.8 60.8,60.8 33.59,0 60.82,-27.22 60.82,-60.8l0 -60.81c0,-33.58 -27.23,-60.8 -60.82,-60.8 -33.58,0 -60.8,27.22 -60.8,60.8l0 60.81zm60.8 -425.66c-33.58,0 -60.8,27.23 -60.8,60.82l0 60.8c0,33.58 27.22,60.81 60.8,60.81 33.59,0 60.82,-27.23 60.82,-60.81l0 -60.8c0,-33.59 -27.23,-60.82 -60.82,-60.82zm182.43 182.43l-60.81 0c-33.59,0 -60.8,27.23 -60.8,60.8 0,33.59 27.21,60.82 60.8,60.82l60.81 0c33.57,0 60.8,-27.23 60.8,-60.82 0,-33.57 -27.23,-60.8 -60.8,-60.8zm-304.04 0l-60.8 0c-33.59,0 -60.82,27.23 -60.82,60.8 0,33.59 27.23,60.82 60.82,60.82l60.8 0c33.58,0 60.81,-27.23 60.81,-60.82 0,-33.57 -27.23,-60.8 -60.81,-60.8zm153.3 -519.85l846.88 707.18c17.34,11.78 41.99,22.17 63.84,17.99 14.58,-2.79 27.76,-12.85 40.94,-22.94 23.58,-34.71 22.5,-79.82 -12.22,-103.39l-977.54 -821.04 38.1 222.2zm1764.73 23.56c-4.07,-13.07 -14.84,-22.57 -27.82,-24.54l-101.24 -15.4 -45.13 -95.96c-10.07,-17.86 -32.05,-23.81 -49.14,-13.31 -5.26,3.25 -9.62,7.83 -12.72,13.31l-45.36 95.96 -101.21 15.4c-18.83,2.83 -31.92,21.15 -29.2,40.85 1.09,7.88 4.6,15.12 10.04,20.68l73.19 74.69 -17.23 105.47c-3.3,19.61 9.22,38.33 27.95,41.8 7.56,1.38 15.35,0.1 22.11,-3.64l90.54 -49.94 90.51 49.8c16.85,9.27 37.73,2.51 46.6,-15.16 3.52,-7.01 4.74,-15.04 3.45,-22.86l-17.25 -105.47 73.25 -74.69c9.38,-9.59 12.73,-23.94 8.66,-36.99zm-701.74 -279.16l-1104 -400.66 -61.3 59.72 14.52 84.6 1087.05 396.92c15.96,4.51 23.24,3.12 37.82,0.34 21.87,-4.19 48.21,-24.34 58.61,-48.98 23.57,-34.73 7.92,-77.04 -32.7,-91.94zm-704.69 -797.01c-57.26,0 -103.94,46.69 -103.94,103.94 0,57.25 46.68,103.93 103.94,103.93 57.24,0 103.92,-46.68 103.92,-103.93 0,-57.25 -46.68,-103.94 -103.92,-103.94zm570.14 222.14c63.91,-42.77 77.19,-49.2 115.79,2.75 105.78,142.25 214.78,121.45 257.63,90.59 2.58,-1.86 4.93,-3.92 7.04,-6.16 15.92,-16.82 18.17,-43.09 4.15,-62.56 -15.9,-22.07 -46.66,-27.08 -68.73,-11.19 -0.45,0.31 -48.45,28.17 -121.04,-69.45 -95.78,-128.77 -192.08,-64.31 -249.61,-25.82 -64.06,42.88 -97.46,61.26 -156.19,11.16 -20.7,-17.66 -51.7,-15.32 -69.41,5.48 -17.66,20.69 -15.2,51.77 5.49,69.43 118.04,100.73 212.42,37.57 274.88,-4.23zm-209.52 -503.69c0,33.58 27.22,60.8 60.8,60.8 33.58,0 60.82,-27.22 60.82,-60.8l0 -60.81c0,-33.58 -27.24,-60.8 -60.82,-60.8 -33.58,0 -60.8,27.22 -60.8,60.8l0 60.81zm60.8 -425.66c-33.58,0 -60.8,27.23 -60.8,60.82l0 60.8c0,33.58 27.22,60.81 60.8,60.81 33.58,0 60.82,-27.23 60.82,-60.81l0 -60.8c0,-33.59 -27.24,-60.82 -60.82,-60.82zm182.43 182.43l-60.81 0c-33.59,0 -60.8,27.22 -60.8,60.8 0,33.59 27.21,60.82 60.8,60.82l60.81 0c33.56,0 60.8,-27.23 60.8,-60.82 0,-33.58 -27.24,-60.8 -60.8,-60.8zm-304.04 0l-60.8 0c-33.59,0 -60.83,27.22 -60.83,60.8 0,33.59 27.24,60.82 60.83,60.82l60.8 0c33.57,0 60.81,-27.23 60.81,-60.82 0,-33.58 -27.24,-60.8 -60.81,-60.8zm-816.73 124.26l1106.84 -902.81c32.26,-28.83 38.47,-75.34 9.63,-107.59 -28.81,-32.24 -75.3,-38.45 -107.58,-9.62l-1214 990.2 205.11 29.82zm-282.53 -133.83l633.73 -1047.39c23.57,-34.72 7.92,-77.04 -26.8,-100.61 -34.72,-23.58 -77.05,-7.91 -100.63,26.8l-583.58 964.55 77.28 156.65zm775.87 -1532.29c-57.25,0 -103.93,46.68 -103.93,103.93 0,57.25 46.68,103.94 103.93,103.94 57.25,0 103.93,-46.69 103.93,-103.94 0,-57.25 -46.68,-103.93 -103.93,-103.93zm-986.89 680.71c-37.88,-68.95 -43.28,-83.01 11.67,-117.23 150.53,-93.76 138.13,-206.34 110.54,-252.74 -1.66,-2.81 -3.55,-5.37 -5.63,-7.73 -15.61,-17.75 -41.7,-22.53 -62.3,-10.18 -23.29,14.04 -30.7,44.76 -16.47,68.67 0.26,0.47 24.44,51.87 -78.88,116.19 -136.23,84.9 -79.15,188.73 -45.05,250.78 37.97,69.07 53.79,104.72 -0.89,159.52 -19.26,19.31 -19.31,50.98 0.14,70.95 19.37,19.88 50.66,20.34 69.91,1.04 109.91,-110.18 53.98,-211.92 16.96,-279.27zm396.08 -1010.8c-4.07,-13.07 -14.84,-22.57 -27.81,-24.54l-101.25 -15.4 -45.12 -95.96c-10.07,-17.86 -32.06,-23.81 -49.14,-13.31 -5.27,3.25 -9.63,7.83 -12.73,13.31l-45.35 95.96 -101.22 15.4c-18.83,2.83 -31.92,21.15 -29.2,40.85 1.09,7.88 4.61,15.13 10.04,20.68l73.2 74.69 -17.23 105.47c-3.3,19.61 9.22,38.33 27.95,41.8 7.56,1.39 15.34,0.1 22.11,-3.64l90.54 -49.94 90.5 49.8c16.86,9.27 37.74,2.51 46.61,-15.16 3.51,-7.01 4.73,-15.04 3.44,-22.86l-17.25 -105.47 73.25 -74.69c9.39,-9.59 12.74,-23.94 8.66,-36.99zm-808.56 1428.62l-270.94 -1416.45c-7.66,-40 -37.37,-63.14 -75.86,-60.38l-21.63 4.15c-36.8,11.64 -55.89,44.1 -48.24,84.11l307.83 1609.2 108.84 -220.63zm-769.06 -309.1l469.08 793.92c8.15,17.61 24.56,30.6 42.9,36.31l65.93 -133.63 -456.53 -772.7c-21.53,-33.64 -69.44,-47.14 -103.08,-25.6 -33.64,21.55 -39.87,68.07 -18.3,101.7zm-118.35 -434.11c-57.25,0 -103.93,46.69 -103.93,103.94 0,57.25 46.68,103.93 103.93,103.93 57.25,0 103.93,-46.68 103.93,-103.93 0,-57.25 -46.68,-103.94 -103.93,-103.94zm480.28 1297.82l-1221.95 -1016.42c-34.72,-23.57 -79.83,-22.49 -103.39,12.23 -23.58,34.73 -22.49,79.82 12.23,103.39l1121.52 928.63 191.59 -27.83zm-979.89 -33.88c-75.64,21.63 -90.55,23.78 -111.72,-37.4 -58.02,-167.58 -170.54,-180.46 -221.91,-163.85 -3.11,0.99 -6.02,2.26 -8.78,3.76 -20.79,11.29 -31.24,35.67 -23.77,58.49 8.53,25.83 36.85,39.87 63.31,31.3 0.53,-0.14 56,-12.32 95.8,102.69 52.56,151.68 166.46,119.07 234.53,99.57 75.77,-21.69 114.05,-29.21 155.36,36.27 14.54,23.06 45.42,30.13 69.2,15.6 23.68,-14.47 31.08,-44.87 16.52,-67.94 -83.03,-131.61 -194.66,-99.65 -268.54,-78.49z"/>
   <path class="fil2" d="M530.36 1506.82c-4.07,-13.07 -14.84,-22.57 -27.81,-24.55l-101.25 -15.39 -45.12 -95.96c-10.07,-17.86 -32.06,-23.81 -49.14,-13.31 -5.27,3.25 -9.63,7.82 -12.73,13.31l-45.35 95.96 -101.22 15.39c-18.83,2.84 -31.92,21.15 -29.2,40.85 1.09,7.89 4.61,15.13 10.04,20.69l73.19 74.68 -17.22 105.47c-3.3,19.62 9.22,38.34 27.94,41.81 7.57,1.38 15.35,0.1 22.12,-3.65l90.53 -49.93 90.51 49.8c16.86,9.27 37.74,2.5 46.6,-15.16 3.52,-7.02 4.74,-15.04 3.45,-22.87l-17.25 -105.47 73.25 -74.68c9.38,-9.59 12.74,-23.95 8.66,-36.99zm2225.11 517.22l260.26 527.57 582.27 84.62 -421.28 410.61 99.43 579.82 -520.68 -273.73 -520.71 273.73 99.44 -579.82 -421.24 -410.61 582.26 -84.62 260.25 -527.57zm-746.05 2234.07c-4.07,-13.07 -14.84,-22.56 -27.82,-24.54l-101.24 -15.4 -45.13 -95.96c-10.06,-17.86 -32.05,-23.81 -49.14,-13.3 -5.26,3.25 -9.62,7.82 -12.72,13.3l-45.35 95.96 -101.22 15.4c-18.83,2.83 -31.92,21.15 -29.2,40.85 1.09,7.88 4.6,15.13 10.04,20.68l73.19 74.69 -17.23 105.47c-3.3,19.62 9.22,38.34 27.95,41.8 7.57,1.39 15.35,0.11 22.11,-3.64l90.54 -49.94 90.51 49.8c16.85,9.28 37.74,2.51 46.6,-15.15 3.52,-7.02 4.74,-15.05 3.45,-22.87l-17.25 -105.47 73.25 -74.69c9.38,-9.59 12.73,-23.94 8.66,-36.99z"/>
  </g>
 </g>
</svg>
