<?xml version="1.0" encoding="UTF-8"?>
<!DOCTYPE svg PUBLIC "-//W3C//DTD SVG 1.1//EN" "http://www.w3.org/Graphics/SVG/1.1/DTD/svg11.dtd">
<!-- Creator: CorelDRAW 2018 (64-Bit) -->
<svg xmlns="http://www.w3.org/2000/svg" xml:space="preserve" width="100%" height="100%" version="1.1" style="shape-rendering:geometricPrecision; text-rendering:geometricPrecision; image-rendering:optimizeQuality; fill-rule:evenodd; clip-rule:evenodd"
viewBox="0 0 8167.79 8165.85"
 xmlns:xlink="http://www.w3.org/1999/xlink">
 <defs>
  <style type="text/css">
   <![CDATA[
    .fil1 {fill:#211F1F}
    .fil2 {fill:#FBBA00}
    .fil3 {fill:#211F1F;fill-rule:nonzero}
    .fil0 {fill:#B2B3B3;fill-rule:nonzero}
   ]]>
  </style>
 </defs>
 <g id="Layer_x0020_1">
  <metadata id="CorelCorpID_0Corel-Layer"/>
  <path class="fil0" d="M4446.13 1838.15l0 1047.54 1140.55 0 0 -1047.54 -1140.55 0zm-2481.11 0l0 1047.54 1140.55 0 0 -1047.54 -1140.55 0zm0 1147.54l0 1047.54 1140.55 0 0 -1047.54 -1140.55 0zm0 1147.54l0 1047.54 1140.55 0 0 -1047.54 -1140.55 0zm0 1147.54l0 1047.54 1140.55 0 0 -1047.54 -1140.55 0zm0 1147.54l0 0.66 -100 0 0 -0.66 0 -100 0 -1047.54 0 -100 0 -1047.54 0 -100 0 -1047.54 0 -100 0 -1047.54 0 -100 100 0 3621.66 0 100 0 1140.56 0 100 0 1140.55 0 23.53 0 76.47 0 0 4690.82 -100 0 0 -0.66 -1140.55 0 0 0.66 -100 0 0 -0.66 -1140.56 0 0 0.66 -100 0 0 -0.66 -1140.55 0 0 0.66 -100 0 0 -0.66 -1140.56 0 0 0.66 -100 0 0 -0.66 -1140.55 0zm6102.77 -100l0 -1047.54 -1140.55 0 0 1047.54 1140.55 0zm0 -1147.54l0 -1047.54 -1140.55 0 0 1047.54 1140.55 0zm0 -1147.54l0 -1047.54 -1140.55 0 0 1047.54 1140.55 0zm0 -1147.54l0 -1047.54 -1140.55 0 0 1047.54 1140.55 0zm-1240.55 3442.62l0 -1047.54 -1140.56 0 0 1047.54 1140.56 0zm0 -1147.54l0 -1047.54 -1140.56 0 0 1047.54 1140.56 0zm0 -1147.54l0 -1047.54 -1140.56 0 0 1047.54 1140.56 0zm0 -1147.54l0 -1047.54 -1140.56 0 0 1047.54 1140.56 0zm-3621.67 -1047.54l0 1047.54 1140.56 0 0 -1047.54 -1140.56 0zm0 1147.54l0 1047.54 1140.56 0 0 -1047.54 -1140.56 0zm0 1147.54l0 1047.54 1140.56 0 0 -1047.54 -1140.56 0zm0 1147.54l0 1047.54 1140.56 0 0 -1047.54 -1140.56 0zm2381.11 0l-1140.55 0 0 1047.54 1140.55 0 0 -1047.54zm-1140.55 -100l1140.55 0 0 -1047.54 -1140.55 0 0 1047.54zm0 -1147.54l1140.55 0 0 -1047.54 -1140.55 0 0 1047.54z"/>
  <g id="_1919597032816">
   <path class="fil1" d="M4932.45 2676.53l-45.05 46.73 696.66 669.49c22.9,-9.09 47.77,-14.33 73.86,-14.86 116.88,-2.38 213.55,90.44 215.93,207.32 2.38,116.88 -90.45,213.55 -207.32,215.93 -116.88,2.38 -213.56,-90.45 -215.93,-207.32 -0.73,-35.69 7.45,-69.51 22.45,-99.32l-689.97 -663.07 -46.9 48.66 452.45 1268.41 653.29 344.03 759.72 -795.85 -394.34 -633.19 -1274.85 -386.96z"/>
   <polygon class="fil1" points="6328.1,4925.42 7057.89,4165.35 6694.81,3816.74 5967.23,4578.94 "/>
  </g>
  <circle class="fil2" cx="6269.95" cy="6324.63" r="1146.93"/>
  <polygon class="fil3" points="1746.42,6302.69 1746.42,1738.16 3215.73,1738.16 3215.73,3196.08 4382.06,1738.15 6078.85,1738.16 5216.91,2800.55 4971.06,2708.03 5555.11,1988.16 4500.63,1988.16 2965.73,3906.78 2965.73,1988.16 1996.42,1988.16 1996.42,6177.69 2965.73,6177.69 2965.73,4970.88 3445.74,4473.09 4595.2,6177.69 5688.93,6177.69 4055.54,3857.81 4360.73,3857.81 6170.12,6427.69 4462.57,6427.69 3411.03,4868.29 3215.73,5070.82 3215.73,6427.69 1746.42,6427.69 "/>
  <g id="_1919597035792">
   <path class="fil3" d="M57.57 115.85c4.37,0 8.79,-0.52 13.25,-1.54l2.53 -0.61c30.96,-7.29 50.18,-38.28 42.89,-69.27 -7.27,-30.97 -38.28,-50.14 -69.25,-42.89l-2.55 0.61c-30.97,7.26 -50.17,38.27 -42.89,69.24 6.24,26.56 29.89,44.46 56.02,44.46z"/>
   <path class="fil3" d="M407.57 115.85c4.37,0 8.79,-0.52 13.25,-1.54l2.53 -0.61c30.96,-7.29 50.18,-38.28 42.89,-69.27 -7.27,-30.97 -38.28,-50.14 -69.25,-42.89l-2.55 0.61c-30.97,7.26 -50.17,38.27 -42.89,69.24 6.24,26.56 29.89,44.46 56.02,44.46z"/>
   <path class="fil3" d="M757.57 115.85c4.37,0 8.79,-0.52 13.25,-1.54l2.53 -0.61c30.96,-7.29 50.18,-38.28 42.89,-69.27 -7.27,-30.97 -38.28,-50.14 -69.25,-42.89l-2.55 0.61c-30.97,7.26 -50.17,38.27 -42.89,69.24 6.24,26.56 29.89,44.46 56.02,44.46z"/>
   <path class="fil3" d="M1107.57 115.85c4.37,0 8.79,-0.52 13.25,-1.54l2.53 -0.61c30.96,-7.29 50.18,-38.28 42.89,-69.27 -7.27,-30.97 -38.28,-50.14 -69.25,-42.89l-2.55 0.61c-30.97,7.26 -50.17,38.27 -42.89,69.24 6.24,26.56 29.89,44.46 56.02,44.46z"/>
   <path class="fil3" d="M1457.57 115.85c4.37,0 8.79,-0.52 13.25,-1.54l2.53 -0.61c30.96,-7.29 50.18,-38.28 42.89,-69.27 -7.27,-30.97 -38.28,-50.14 -69.25,-42.89l-2.55 0.61c-30.97,7.26 -50.17,38.27 -42.89,69.24 6.24,26.56 29.89,44.46 56.02,44.46z"/>
   <path class="fil3" d="M1807.57 115.85c4.37,0 8.79,-0.52 13.25,-1.54l2.53 -0.61c30.96,-7.29 50.18,-38.28 42.89,-69.27 -7.27,-30.97 -38.28,-50.14 -69.25,-42.89l-2.55 0.61c-30.97,7.26 -50.17,38.27 -42.89,69.24 6.24,26.56 29.89,44.46 56.02,44.46z"/>
   <path class="fil3" d="M2157.57 115.85c4.37,0 8.79,-0.52 13.25,-1.54l2.53 -0.61c30.96,-7.29 50.18,-38.28 42.89,-69.27 -7.27,-30.97 -38.28,-50.14 -69.25,-42.89l-2.55 0.61c-30.97,7.26 -50.17,38.27 -42.89,69.24 6.24,26.56 29.89,44.46 56.02,44.46z"/>
   <path class="fil3" d="M2507.57 115.85c4.37,0 8.79,-0.52 13.25,-1.54l2.53 -0.61c30.96,-7.29 50.18,-38.28 42.89,-69.27 -7.27,-30.97 -38.28,-50.14 -69.25,-42.89l-2.55 0.61c-30.97,7.26 -50.17,38.27 -42.89,69.24 6.24,26.56 29.89,44.46 56.02,44.46z"/>
   <path class="fil3" d="M2857.57 115.85c4.37,0 8.79,-0.52 13.25,-1.54l2.53 -0.61c30.96,-7.29 50.18,-38.28 42.89,-69.27 -7.27,-30.97 -38.28,-50.14 -69.25,-42.89l-2.55 0.61c-30.97,7.26 -50.17,38.27 -42.89,69.24 6.24,26.56 29.89,44.46 56.02,44.46z"/>
   <path class="fil3" d="M3207.57 115.85c4.37,0 8.79,-0.52 13.25,-1.54l2.53 -0.61c30.96,-7.29 50.18,-38.28 42.89,-69.27 -7.27,-30.97 -38.28,-50.14 -69.25,-42.89l-2.55 0.61c-30.97,7.26 -50.17,38.27 -42.89,69.24 6.24,26.56 29.89,44.46 56.02,44.46z"/>
   <path class="fil3" d="M3557.57 115.85c4.37,0 8.79,-0.52 13.25,-1.54l2.53 -0.61c30.96,-7.29 50.18,-38.28 42.89,-69.27 -7.27,-30.97 -38.28,-50.14 -69.25,-42.89l-2.55 0.61c-30.97,7.26 -50.17,38.27 -42.89,69.24 6.24,26.56 29.89,44.46 56.02,44.46z"/>
   <path class="fil3" d="M3907.57 115.85c4.37,0 8.79,-0.52 13.25,-1.54l2.53 -0.61c30.96,-7.29 50.18,-38.28 42.89,-69.27 -7.27,-30.97 -38.28,-50.14 -69.25,-42.89l-2.55 0.61c-30.97,7.26 -50.17,38.27 -42.89,69.24 6.24,26.56 29.89,44.46 56.02,44.46z"/>
   <path class="fil3" d="M4257.57 115.85c4.37,0 8.79,-0.52 13.25,-1.54l2.53 -0.61c30.96,-7.29 50.18,-38.28 42.89,-69.27 -7.27,-30.97 -38.28,-50.14 -69.25,-42.89l-2.55 0.61c-30.97,7.26 -50.17,38.27 -42.89,69.24 6.24,26.56 29.89,44.46 56.02,44.46z"/>
   <path class="fil3" d="M4607.57 115.85c4.37,0 8.79,-0.52 13.25,-1.54l2.53 -0.61c30.96,-7.29 50.18,-38.28 42.89,-69.27 -7.27,-30.97 -38.28,-50.14 -69.25,-42.89l-2.55 0.61c-30.97,7.26 -50.17,38.27 -42.89,69.24 6.24,26.56 29.89,44.46 56.02,44.46z"/>
   <path class="fil3" d="M4957.57 115.85c4.37,0 8.79,-0.52 13.25,-1.54l2.53 -0.61c30.96,-7.29 50.18,-38.28 42.89,-69.27 -7.27,-30.97 -38.28,-50.14 -69.25,-42.89l-2.55 0.61c-30.97,7.26 -50.17,38.27 -42.89,69.24 6.24,26.56 29.89,44.46 56.02,44.46z"/>
   <path class="fil3" d="M5307.57 115.85c4.37,0 8.79,-0.52 13.25,-1.54l2.53 -0.61c30.96,-7.29 50.18,-38.28 42.89,-69.27 -7.27,-30.97 -38.28,-50.14 -69.25,-42.89l-2.55 0.61c-30.97,7.26 -50.17,38.27 -42.89,69.24 6.24,26.56 29.89,44.46 56.02,44.46z"/>
   <path class="fil3" d="M5657.57 115.85c4.37,0 8.79,-0.52 13.25,-1.54l2.53 -0.61c30.96,-7.29 50.18,-38.28 42.89,-69.27 -7.27,-30.97 -38.28,-50.14 -69.25,-42.89l-2.55 0.61c-30.97,7.26 -50.17,38.27 -42.89,69.24 6.24,26.56 29.89,44.46 56.02,44.46z"/>
   <path class="fil3" d="M6007.57 115.85c4.37,0 8.79,-0.52 13.25,-1.54l2.53 -0.61c30.96,-7.29 50.18,-38.28 42.89,-69.27 -7.27,-30.97 -38.28,-50.14 -69.25,-42.89l-2.55 0.61c-30.97,7.26 -50.17,38.27 -42.89,69.24 6.24,26.56 29.89,44.46 56.02,44.46z"/>
   <path class="fil3" d="M6357.57 115.85c4.37,0 8.79,-0.52 13.25,-1.54l2.53 -0.61c30.96,-7.29 50.18,-38.28 42.89,-69.27 -7.27,-30.97 -38.28,-50.14 -69.25,-42.89l-2.55 0.61c-30.97,7.26 -50.17,38.27 -42.89,69.24 6.24,26.56 29.89,44.46 56.02,44.46z"/>
   <path class="fil3" d="M6707.57 115.85c4.37,0 8.79,-0.52 13.25,-1.54l2.53 -0.61c30.96,-7.29 50.18,-38.28 42.89,-69.27 -7.27,-30.97 -38.28,-50.14 -69.25,-42.89l-2.55 0.61c-30.97,7.26 -50.17,38.27 -42.89,69.24 6.24,26.56 29.89,44.46 56.02,44.46z"/>
   <path class="fil3" d="M7057.57 115.85c4.37,0 8.79,-0.52 13.25,-1.54l2.53 -0.61c30.96,-7.29 50.18,-38.28 42.89,-69.27 -7.27,-30.97 -38.28,-50.14 -69.25,-42.89l-2.55 0.61c-30.97,7.26 -50.17,38.27 -42.89,69.24 6.24,26.56 29.89,44.46 56.02,44.46z"/>
   <path class="fil3" d="M7407.57 115.85c4.37,0 8.79,-0.52 13.25,-1.54l2.53 -0.61c30.96,-7.29 50.18,-38.28 42.89,-69.27 -7.27,-30.97 -38.28,-50.14 -69.25,-42.89l-2.55 0.61c-30.97,7.26 -50.17,38.27 -42.89,69.24 6.24,26.56 29.89,44.46 56.02,44.46z"/>
   <path class="fil3" d="M7757.57 115.85c4.37,0 8.79,-0.52 13.25,-1.54l2.53 -0.61c30.96,-7.29 50.18,-38.28 42.89,-69.27 -7.27,-30.97 -38.28,-50.14 -69.25,-42.89l-2.55 0.61c-30.97,7.26 -50.17,38.27 -42.89,69.24 6.24,26.56 29.89,44.46 56.02,44.46z"/>
   <path class="fil3" d="M8107.57 115.85c4.37,0 8.79,-0.52 13.25,-1.54l2.53 -0.61c30.96,-7.29 50.18,-38.28 42.89,-69.27 -7.27,-30.97 -38.28,-50.14 -69.25,-42.89l-2.55 0.61c-30.97,7.26 -50.17,38.27 -42.89,69.24 6.24,26.56 29.89,44.46 56.02,44.46z"/>
   <path class="fil3" d="M8107.57 465.85c4.37,0 8.79,-0.52 13.25,-1.54l2.53 -0.61c30.96,-7.29 50.18,-38.28 42.89,-69.27 -7.27,-30.97 -38.28,-50.14 -69.25,-42.89l-2.55 0.61c-30.97,7.26 -50.17,38.27 -42.89,69.24 6.24,26.56 29.89,44.46 56.02,44.46z"/>
   <path class="fil3" d="M8107.57 815.85c4.37,0 8.79,-0.52 13.25,-1.54l2.53 -0.61c30.96,-7.29 50.18,-38.28 42.89,-69.27 -7.27,-30.97 -38.28,-50.14 -69.25,-42.89l-2.55 0.61c-30.97,7.26 -50.17,38.27 -42.89,69.24 6.24,26.56 29.89,44.46 56.02,44.46z"/>
   <path class="fil3" d="M8107.57 1165.85c4.37,0 8.79,-0.52 13.25,-1.54l2.53 -0.61c30.96,-7.29 50.18,-38.28 42.89,-69.27 -7.27,-30.97 -38.28,-50.14 -69.25,-42.89l-2.55 0.61c-30.97,7.26 -50.17,38.27 -42.89,69.24 6.24,26.56 29.89,44.46 56.02,44.46z"/>
   <path class="fil3" d="M8107.57 1515.85c4.37,0 8.79,-0.52 13.25,-1.54l2.53 -0.61c30.96,-7.29 50.18,-38.28 42.89,-69.27 -7.27,-30.97 -38.28,-50.14 -69.25,-42.89l-2.55 0.61c-30.97,7.26 -50.17,38.27 -42.89,69.24 6.24,26.56 29.89,44.46 56.02,44.46z"/>
   <path class="fil3" d="M8107.57 1865.85c4.37,0 8.79,-0.52 13.25,-1.54l2.53 -0.61c30.96,-7.29 50.18,-38.28 42.89,-69.27 -7.27,-30.97 -38.28,-50.14 -69.25,-42.89l-2.55 0.61c-30.97,7.26 -50.17,38.27 -42.89,69.24 6.24,26.56 29.89,44.46 56.02,44.46z"/>
   <path class="fil3" d="M8107.57 2215.85c4.37,0 8.79,-0.52 13.25,-1.54l2.53 -0.61c30.96,-7.29 50.18,-38.28 42.89,-69.27 -7.27,-30.97 -38.28,-50.14 -69.25,-42.89l-2.55 0.61c-30.97,7.26 -50.17,38.27 -42.89,69.24 6.24,26.56 29.89,44.46 56.02,44.46z"/>
   <path class="fil3" d="M8107.57 2565.85c4.37,0 8.79,-0.52 13.25,-1.54l2.53 -0.61c30.96,-7.29 50.18,-38.28 42.89,-69.27 -7.27,-30.97 -38.28,-50.14 -69.25,-42.89l-2.55 0.61c-30.97,7.26 -50.17,38.27 -42.89,69.24 6.24,26.56 29.89,44.46 56.02,44.46z"/>
   <path class="fil3" d="M8107.57 2915.85c4.37,0 8.79,-0.52 13.25,-1.54l2.53 -0.61c30.96,-7.29 50.18,-38.28 42.89,-69.27 -7.27,-30.97 -38.28,-50.14 -69.25,-42.89l-2.55 0.61c-30.97,7.26 -50.17,38.27 -42.89,69.24 6.24,26.56 29.89,44.46 56.02,44.46z"/>
   <path class="fil3" d="M8107.57 3265.85c4.37,0 8.79,-0.52 13.25,-1.54l2.53 -0.61c30.96,-7.29 50.18,-38.28 42.89,-69.27 -7.27,-30.97 -38.28,-50.14 -69.25,-42.89l-2.55 0.61c-30.97,7.26 -50.17,38.27 -42.89,69.24 6.24,26.56 29.89,44.46 56.02,44.46z"/>
   <path class="fil3" d="M8107.57 3615.85c4.37,0 8.79,-0.52 13.25,-1.54l2.53 -0.61c30.96,-7.29 50.18,-38.28 42.89,-69.27 -7.27,-30.97 -38.28,-50.14 -69.25,-42.89l-2.55 0.61c-30.97,7.26 -50.17,38.27 -42.89,69.24 6.24,26.56 29.89,44.46 56.02,44.46z"/>
   <path class="fil3" d="M8107.57 3965.85c4.37,0 8.79,-0.52 13.25,-1.54l2.53 -0.61c30.96,-7.29 50.18,-38.28 42.89,-69.27 -7.27,-30.97 -38.28,-50.14 -69.25,-42.89l-2.55 0.61c-30.97,7.26 -50.17,38.27 -42.89,69.24 6.24,26.56 29.89,44.46 56.02,44.46z"/>
   <path class="fil3" d="M8107.57 4315.85c4.37,0 8.79,-0.52 13.25,-1.54l2.53 -0.61c30.96,-7.29 50.18,-38.28 42.89,-69.27 -7.27,-30.97 -38.28,-50.14 -69.25,-42.89l-2.55 0.61c-30.97,7.26 -50.17,38.27 -42.89,69.24 6.24,26.56 29.89,44.46 56.02,44.46z"/>
   <path class="fil3" d="M8107.57 4665.85c4.37,0 8.79,-0.52 13.25,-1.54l2.53 -0.61c30.96,-7.29 50.18,-38.28 42.89,-69.27 -7.27,-30.97 -38.28,-50.14 -69.25,-42.89l-2.55 0.61c-30.97,7.26 -50.17,38.27 -42.89,69.24 6.24,26.56 29.89,44.46 56.02,44.46z"/>
   <path class="fil3" d="M8107.57 5015.85c4.37,0 8.79,-0.52 13.25,-1.54l2.53 -0.61c30.96,-7.29 50.18,-38.28 42.89,-69.27 -7.27,-30.97 -38.28,-50.14 -69.25,-42.89l-2.55 0.61c-30.97,7.26 -50.17,38.27 -42.89,69.24 6.24,26.56 29.89,44.46 56.02,44.46z"/>
   <path class="fil3" d="M8107.57 5365.85c4.37,0 8.79,-0.52 13.25,-1.54l2.53 -0.61c30.96,-7.29 50.18,-38.28 42.89,-69.27 -7.27,-30.97 -38.28,-50.14 -69.25,-42.89l-2.55 0.61c-30.97,7.26 -50.17,38.27 -42.89,69.24 6.24,26.56 29.89,44.46 56.02,44.46z"/>
   <path class="fil3" d="M8107.57 5715.85c4.37,0 8.79,-0.52 13.25,-1.54l2.53 -0.61c30.96,-7.29 50.18,-38.28 42.89,-69.27 -7.27,-30.97 -38.28,-50.14 -69.25,-42.89l-2.55 0.61c-30.97,7.26 -50.17,38.27 -42.89,69.24 6.24,26.56 29.89,44.46 56.02,44.46z"/>
   <path class="fil3" d="M8107.57 6065.85c4.37,0 8.79,-0.52 13.25,-1.54l2.53 -0.61c30.96,-7.29 50.18,-38.28 42.89,-69.27 -7.27,-30.97 -38.28,-50.14 -69.25,-42.89l-2.55 0.61c-30.97,7.26 -50.17,38.27 -42.89,69.24 6.24,26.56 29.89,44.46 56.02,44.46z"/>
   <path class="fil3" d="M8107.57 6415.85c4.37,0 8.79,-0.52 13.25,-1.54l2.53 -0.61c30.96,-7.29 50.18,-38.28 42.89,-69.27 -7.27,-30.97 -38.28,-50.14 -69.25,-42.89l-2.55 0.61c-30.97,7.26 -50.17,38.27 -42.89,69.24 6.24,26.56 29.89,44.46 56.02,44.46z"/>
   <path class="fil3" d="M8107.57 6765.85c4.37,0 8.79,-0.52 13.25,-1.54l2.53 -0.61c30.96,-7.29 50.18,-38.28 42.89,-69.27 -7.27,-30.97 -38.28,-50.14 -69.25,-42.89l-2.55 0.61c-30.97,7.26 -50.17,38.27 -42.89,69.24 6.24,26.56 29.89,44.46 56.02,44.46z"/>
   <path class="fil3" d="M8107.57 7115.85c4.37,0 8.79,-0.52 13.25,-1.54l2.53 -0.61c30.96,-7.29 50.18,-38.28 42.89,-69.27 -7.27,-30.97 -38.28,-50.14 -69.25,-42.89l-2.55 0.61c-30.97,7.26 -50.17,38.27 -42.89,69.24 6.24,26.56 29.89,44.46 56.02,44.46z"/>
   <path class="fil3" d="M8107.57 7465.85c4.37,0 8.79,-0.52 13.25,-1.54l2.53 -0.61c30.96,-7.29 50.18,-38.28 42.89,-69.27 -7.27,-30.97 -38.28,-50.14 -69.25,-42.89l-2.55 0.61c-30.97,7.26 -50.17,38.27 -42.89,69.24 6.24,26.56 29.89,44.46 56.02,44.46z"/>
   <path class="fil3" d="M8107.57 7815.85c4.37,0 8.79,-0.52 13.25,-1.54l2.53 -0.61c30.96,-7.29 50.18,-38.28 42.89,-69.27 -7.27,-30.97 -38.28,-50.14 -69.25,-42.89l-2.55 0.61c-30.97,7.26 -50.17,38.27 -42.89,69.24 6.24,26.56 29.89,44.46 56.02,44.46z"/>
   <path class="fil3" d="M8107.57 8165.85c4.37,0 8.79,-0.52 13.25,-1.54l2.53 -0.61c30.96,-7.29 50.18,-38.28 42.89,-69.27 -7.27,-30.97 -38.28,-50.14 -69.25,-42.89l-2.55 0.61c-30.97,7.26 -50.17,38.27 -42.89,69.24 6.24,26.56 29.89,44.46 56.02,44.46z"/>
   <path class="fil3" d="M7757.57 8165.85c4.37,0 8.79,-0.52 13.25,-1.54l2.53 -0.61c30.96,-7.29 50.18,-38.28 42.89,-69.27 -7.27,-30.97 -38.28,-50.14 -69.25,-42.89l-2.55 0.61c-30.97,7.26 -50.17,38.27 -42.89,69.24 6.24,26.56 29.89,44.46 56.02,44.46z"/>
   <path class="fil3" d="M7407.57 8165.85c4.37,0 8.79,-0.52 13.25,-1.54l2.53 -0.61c30.96,-7.29 50.18,-38.28 42.89,-69.27 -7.27,-30.97 -38.28,-50.14 -69.25,-42.89l-2.55 0.61c-30.97,7.26 -50.17,38.27 -42.89,69.24 6.24,26.56 29.89,44.46 56.02,44.46z"/>
   <path class="fil3" d="M7057.57 8165.85c4.37,0 8.79,-0.52 13.25,-1.54l2.53 -0.61c30.96,-7.29 50.18,-38.28 42.89,-69.27 -7.27,-30.97 -38.28,-50.14 -69.25,-42.89l-2.55 0.61c-30.97,7.26 -50.17,38.27 -42.89,69.24 6.24,26.56 29.89,44.46 56.02,44.46z"/>
   <path class="fil3" d="M6707.57 8165.85c4.37,0 8.79,-0.52 13.25,-1.54l2.53 -0.61c30.96,-7.29 50.18,-38.28 42.89,-69.27 -7.27,-30.97 -38.28,-50.14 -69.25,-42.89l-2.55 0.61c-30.97,7.26 -50.17,38.27 -42.89,69.24 6.24,26.56 29.89,44.46 56.02,44.46z"/>
   <path class="fil3" d="M6357.57 8165.85c4.37,0 8.79,-0.52 13.25,-1.54l2.53 -0.61c30.96,-7.29 50.18,-38.28 42.89,-69.27 -7.27,-30.97 -38.28,-50.14 -69.25,-42.89l-2.55 0.61c-30.97,7.26 -50.17,38.27 -42.89,69.24 6.24,26.56 29.89,44.46 56.02,44.46z"/>
   <path class="fil3" d="M6007.57 8165.85c4.37,0 8.79,-0.52 13.25,-1.54l2.53 -0.61c30.96,-7.29 50.18,-38.28 42.89,-69.27 -7.27,-30.97 -38.28,-50.14 -69.25,-42.89l-2.55 0.61c-30.97,7.26 -50.17,38.27 -42.89,69.24 6.24,26.56 29.89,44.46 56.02,44.46z"/>
   <path class="fil3" d="M5657.57 8165.85c4.37,0 8.79,-0.52 13.25,-1.54l2.53 -0.61c30.96,-7.29 50.18,-38.28 42.89,-69.27 -7.27,-30.97 -38.28,-50.14 -69.25,-42.89l-2.55 0.61c-30.97,7.26 -50.17,38.27 -42.89,69.24 6.24,26.56 29.89,44.46 56.02,44.46z"/>
   <path class="fil3" d="M5307.57 8165.85c4.37,0 8.79,-0.52 13.25,-1.54l2.53 -0.61c30.96,-7.29 50.18,-38.28 42.89,-69.27 -7.27,-30.97 -38.28,-50.14 -69.25,-42.89l-2.55 0.61c-30.97,7.26 -50.17,38.27 -42.89,69.24 6.24,26.56 29.89,44.46 56.02,44.46z"/>
   <path class="fil3" d="M4957.57 8165.85c4.37,0 8.79,-0.52 13.25,-1.54l2.53 -0.61c30.96,-7.29 50.18,-38.28 42.89,-69.27 -7.27,-30.97 -38.28,-50.14 -69.25,-42.89l-2.55 0.61c-30.97,7.26 -50.17,38.27 -42.89,69.24 6.24,26.56 29.89,44.46 56.02,44.46z"/>
   <path class="fil3" d="M4607.57 8165.85c4.37,0 8.79,-0.52 13.25,-1.54l2.53 -0.61c30.96,-7.29 50.18,-38.28 42.89,-69.27 -7.27,-30.97 -38.28,-50.14 -69.25,-42.89l-2.55 0.61c-30.97,7.26 -50.17,38.27 -42.89,69.24 6.24,26.56 29.89,44.46 56.02,44.46z"/>
   <path class="fil3" d="M4257.57 8165.85c4.37,0 8.79,-0.52 13.25,-1.54l2.53 -0.61c30.96,-7.29 50.18,-38.28 42.89,-69.27 -7.27,-30.97 -38.28,-50.14 -69.25,-42.89l-2.55 0.61c-30.97,7.26 -50.17,38.27 -42.89,69.24 6.24,26.56 29.89,44.46 56.02,44.46z"/>
   <path class="fil3" d="M3907.57 8165.85c4.37,0 8.79,-0.52 13.25,-1.54l2.53 -0.61c30.96,-7.29 50.18,-38.28 42.89,-69.27 -7.27,-30.97 -38.28,-50.14 -69.25,-42.89l-2.55 0.61c-30.97,7.26 -50.17,38.27 -42.89,69.24 6.24,26.56 29.89,44.46 56.02,44.46z"/>
   <path class="fil3" d="M3557.57 8165.85c4.37,0 8.79,-0.52 13.25,-1.54l2.53 -0.61c30.96,-7.29 50.18,-38.28 42.89,-69.27 -7.27,-30.97 -38.28,-50.14 -69.25,-42.89l-2.55 0.61c-30.97,7.26 -50.17,38.27 -42.89,69.24 6.24,26.56 29.89,44.46 56.02,44.46z"/>
   <path class="fil3" d="M3207.57 8165.85c4.37,0 8.79,-0.52 13.25,-1.54l2.53 -0.61c30.96,-7.29 50.18,-38.28 42.89,-69.27 -7.27,-30.97 -38.28,-50.14 -69.25,-42.89l-2.55 0.61c-30.97,7.26 -50.17,38.27 -42.89,69.24 6.24,26.56 29.89,44.46 56.02,44.46z"/>
   <path class="fil3" d="M2857.57 8165.85c4.37,0 8.79,-0.52 13.25,-1.54l2.53 -0.61c30.96,-7.29 50.18,-38.28 42.89,-69.27 -7.27,-30.97 -38.28,-50.14 -69.25,-42.89l-2.55 0.61c-30.97,7.26 -50.17,38.27 -42.89,69.24 6.24,26.56 29.89,44.46 56.02,44.46z"/>
   <path class="fil3" d="M2507.57 8165.85c4.37,0 8.79,-0.52 13.25,-1.54l2.53 -0.61c30.96,-7.29 50.18,-38.28 42.89,-69.27 -7.27,-30.97 -38.28,-50.14 -69.25,-42.89l-2.55 0.61c-30.97,7.26 -50.17,38.27 -42.89,69.24 6.24,26.56 29.89,44.46 56.02,44.46z"/>
   <path class="fil3" d="M2157.57 8165.85c4.37,0 8.79,-0.52 13.25,-1.54l2.53 -0.61c30.96,-7.29 50.18,-38.28 42.89,-69.27 -7.27,-30.97 -38.28,-50.14 -69.25,-42.89l-2.55 0.61c-30.97,7.26 -50.17,38.27 -42.89,69.24 6.24,26.56 29.89,44.46 56.02,44.46z"/>
   <path class="fil3" d="M1807.57 8165.85c4.37,0 8.79,-0.52 13.25,-1.54l2.53 -0.61c30.96,-7.29 50.18,-38.28 42.89,-69.27 -7.27,-30.97 -38.28,-50.14 -69.25,-42.89l-2.55 0.61c-30.97,7.26 -50.17,38.27 -42.89,69.24 6.24,26.56 29.89,44.46 56.02,44.46z"/>
   <path class="fil3" d="M1457.57 8165.85c4.37,0 8.79,-0.52 13.25,-1.54l2.53 -0.61c30.96,-7.29 50.18,-38.28 42.89,-69.27 -7.27,-30.97 -38.28,-50.14 -69.25,-42.89l-2.55 0.61c-30.97,7.26 -50.17,38.27 -42.89,69.24 6.24,26.56 29.89,44.46 56.02,44.46z"/>
   <path class="fil3" d="M1107.57 8165.85c4.37,0 8.79,-0.52 13.25,-1.54l2.53 -0.61c30.96,-7.29 50.18,-38.28 42.89,-69.27 -7.27,-30.97 -38.28,-50.14 -69.25,-42.89l-2.55 0.61c-30.97,7.26 -50.17,38.27 -42.89,69.24 6.24,26.56 29.89,44.46 56.02,44.46z"/>
   <path class="fil3" d="M757.57 8165.85c4.37,0 8.79,-0.52 13.25,-1.54l2.53 -0.61c30.96,-7.29 50.18,-38.28 42.89,-69.27 -7.27,-30.97 -38.28,-50.14 -69.25,-42.89l-2.55 0.61c-30.97,7.26 -50.17,38.27 -42.89,69.24 6.24,26.56 29.89,44.46 56.02,44.46z"/>
   <path class="fil3" d="M407.57 8165.85c4.37,0 8.79,-0.52 13.25,-1.54l2.53 -0.61c30.96,-7.29 50.18,-38.28 42.89,-69.27 -7.27,-30.97 -38.28,-50.14 -69.25,-42.89l-2.55 0.61c-30.97,7.26 -50.17,38.27 -42.89,69.24 6.24,26.56 29.89,44.46 56.02,44.46z"/>
   <path class="fil3" d="M57.57 8165.85c4.37,0 8.79,-0.52 13.25,-1.54l2.53 -0.61c30.96,-7.29 50.18,-38.28 42.89,-69.27 -7.27,-30.97 -38.28,-50.14 -69.25,-42.89l-2.55 0.61c-30.97,7.26 -50.17,38.27 -42.89,69.24 6.24,26.56 29.89,44.46 56.02,44.46z"/>
   <path class="fil3" d="M57.57 7815.85c4.37,0 8.79,-0.52 13.25,-1.54l2.53 -0.61c30.96,-7.29 50.18,-38.28 42.89,-69.27 -7.27,-30.97 -38.28,-50.14 -69.25,-42.89l-2.55 0.61c-30.97,7.26 -50.17,38.27 -42.89,69.24 6.24,26.56 29.89,44.46 56.02,44.46z"/>
   <path class="fil3" d="M57.57 7465.85c4.37,0 8.79,-0.52 13.25,-1.54l2.53 -0.61c30.96,-7.29 50.18,-38.28 42.89,-69.27 -7.27,-30.97 -38.28,-50.14 -69.25,-42.89l-2.55 0.61c-30.97,7.26 -50.17,38.27 -42.89,69.24 6.24,26.56 29.89,44.46 56.02,44.46z"/>
   <path class="fil3" d="M57.57 7115.85c4.37,0 8.79,-0.52 13.25,-1.54l2.53 -0.61c30.96,-7.29 50.18,-38.28 42.89,-69.27 -7.27,-30.97 -38.28,-50.14 -69.25,-42.89l-2.55 0.61c-30.97,7.26 -50.17,38.27 -42.89,69.24 6.24,26.56 29.89,44.46 56.02,44.46z"/>
   <path class="fil3" d="M57.57 6765.85c4.37,0 8.79,-0.52 13.25,-1.54l2.53 -0.61c30.96,-7.29 50.18,-38.28 42.89,-69.27 -7.27,-30.97 -38.28,-50.14 -69.25,-42.89l-2.55 0.61c-30.97,7.26 -50.17,38.27 -42.89,69.24 6.24,26.56 29.89,44.46 56.02,44.46z"/>
   <path class="fil3" d="M57.57 6415.85c4.37,0 8.79,-0.52 13.25,-1.54l2.53 -0.61c30.96,-7.29 50.18,-38.28 42.89,-69.27 -7.27,-30.97 -38.28,-50.14 -69.25,-42.89l-2.55 0.61c-30.97,7.26 -50.17,38.27 -42.89,69.24 6.24,26.56 29.89,44.46 56.02,44.46z"/>
   <path class="fil3" d="M57.57 6065.85c4.37,0 8.79,-0.52 13.25,-1.54l2.53 -0.61c30.96,-7.29 50.18,-38.28 42.89,-69.27 -7.27,-30.97 -38.28,-50.14 -69.25,-42.89l-2.55 0.61c-30.97,7.26 -50.17,38.27 -42.89,69.24 6.24,26.56 29.89,44.46 56.02,44.46z"/>
   <path class="fil3" d="M57.57 5715.85c4.37,0 8.79,-0.52 13.25,-1.54l2.53 -0.61c30.96,-7.29 50.18,-38.28 42.89,-69.27 -7.27,-30.97 -38.28,-50.14 -69.25,-42.89l-2.55 0.61c-30.97,7.26 -50.17,38.27 -42.89,69.24 6.24,26.56 29.89,44.46 56.02,44.46z"/>
   <path class="fil3" d="M57.57 5365.85c4.37,0 8.79,-0.52 13.25,-1.54l2.53 -0.61c30.96,-7.29 50.18,-38.28 42.89,-69.27 -7.27,-30.97 -38.28,-50.14 -69.25,-42.89l-2.55 0.61c-30.97,7.26 -50.17,38.27 -42.89,69.24 6.24,26.56 29.89,44.46 56.02,44.46z"/>
   <path class="fil3" d="M57.57 5015.85c4.37,0 8.79,-0.52 13.25,-1.54l2.53 -0.61c30.96,-7.29 50.18,-38.28 42.89,-69.27 -7.27,-30.97 -38.28,-50.14 -69.25,-42.89l-2.55 0.61c-30.97,7.26 -50.17,38.27 -42.89,69.24 6.24,26.56 29.89,44.46 56.02,44.46z"/>
   <path class="fil3" d="M57.57 4665.85c4.37,0 8.79,-0.52 13.25,-1.54l2.53 -0.61c30.96,-7.29 50.18,-38.28 42.89,-69.27 -7.27,-30.97 -38.28,-50.14 -69.25,-42.89l-2.55 0.61c-30.97,7.26 -50.17,38.27 -42.89,69.24 6.24,26.56 29.89,44.46 56.02,44.46z"/>
   <path class="fil3" d="M57.57 4315.85c4.37,0 8.79,-0.52 13.25,-1.54l2.53 -0.61c30.96,-7.29 50.18,-38.28 42.89,-69.27 -7.27,-30.97 -38.28,-50.14 -69.25,-42.89l-2.55 0.61c-30.97,7.26 -50.17,38.27 -42.89,69.24 6.24,26.56 29.89,44.46 56.02,44.46z"/>
   <path class="fil3" d="M57.57 3965.85c4.37,0 8.79,-0.52 13.25,-1.54l2.53 -0.61c30.96,-7.29 50.18,-38.28 42.89,-69.27 -7.27,-30.97 -38.28,-50.14 -69.25,-42.89l-2.55 0.61c-30.97,7.26 -50.17,38.27 -42.89,69.24 6.24,26.56 29.89,44.46 56.02,44.46z"/>
   <path class="fil3" d="M57.57 3615.85c4.37,0 8.79,-0.52 13.25,-1.54l2.53 -0.61c30.96,-7.29 50.18,-38.28 42.89,-69.27 -7.27,-30.97 -38.28,-50.14 -69.25,-42.89l-2.55 0.61c-30.97,7.26 -50.17,38.27 -42.89,69.24 6.24,26.56 29.89,44.46 56.02,44.46z"/>
   <path class="fil3" d="M57.57 3265.85c4.37,0 8.79,-0.52 13.25,-1.54l2.53 -0.61c30.96,-7.29 50.18,-38.28 42.89,-69.27 -7.27,-30.97 -38.28,-50.14 -69.25,-42.89l-2.55 0.61c-30.97,7.26 -50.17,38.27 -42.89,69.24 6.24,26.56 29.89,44.46 56.02,44.46z"/>
   <path class="fil3" d="M57.57 2915.85c4.37,0 8.79,-0.52 13.25,-1.54l2.53 -0.61c30.96,-7.29 50.18,-38.28 42.89,-69.27 -7.27,-30.97 -38.28,-50.14 -69.25,-42.89l-2.55 0.61c-30.97,7.26 -50.17,38.27 -42.89,69.24 6.24,26.56 29.89,44.46 56.02,44.46z"/>
   <path class="fil3" d="M57.57 2565.85c4.37,0 8.79,-0.52 13.25,-1.54l2.53 -0.61c30.96,-7.29 50.18,-38.28 42.89,-69.27 -7.27,-30.97 -38.28,-50.14 -69.25,-42.89l-2.55 0.61c-30.97,7.26 -50.17,38.27 -42.89,69.24 6.24,26.56 29.89,44.46 56.02,44.46z"/>
   <path class="fil3" d="M57.57 2215.85c4.37,0 8.79,-0.52 13.25,-1.54l2.53 -0.61c30.96,-7.29 50.18,-38.28 42.89,-69.27 -7.27,-30.97 -38.28,-50.14 -69.25,-42.89l-2.55 0.61c-30.97,7.26 -50.17,38.27 -42.89,69.24 6.24,26.56 29.89,44.46 56.02,44.46z"/>
   <path class="fil3" d="M57.57 1865.85c4.37,0 8.79,-0.52 13.25,-1.54l2.53 -0.61c30.96,-7.29 50.18,-38.28 42.89,-69.27 -7.27,-30.97 -38.28,-50.14 -69.25,-42.89l-2.55 0.61c-30.97,7.26 -50.17,38.27 -42.89,69.24 6.24,26.56 29.89,44.46 56.02,44.46z"/>
   <path class="fil3" d="M57.57 1515.85c4.37,0 8.79,-0.52 13.25,-1.54l2.53 -0.61c30.96,-7.29 50.18,-38.28 42.89,-69.27 -7.27,-30.97 -38.28,-50.14 -69.25,-42.89l-2.55 0.61c-30.97,7.26 -50.17,38.27 -42.89,69.24 6.24,26.56 29.89,44.46 56.02,44.46z"/>
   <path class="fil3" d="M57.57 1165.85c4.37,0 8.79,-0.52 13.25,-1.54l2.53 -0.61c30.96,-7.29 50.18,-38.28 42.89,-69.27 -7.27,-30.97 -38.28,-50.14 -69.25,-42.89l-2.55 0.61c-30.97,7.26 -50.17,38.27 -42.89,69.24 6.24,26.56 29.89,44.46 56.02,44.46z"/>
   <path class="fil3" d="M57.57 815.85c4.37,0 8.79,-0.52 13.25,-1.54l2.53 -0.61c30.96,-7.29 50.18,-38.28 42.89,-69.27 -7.27,-30.97 -38.28,-50.14 -69.25,-42.89l-2.55 0.61c-30.97,7.26 -50.17,38.27 -42.89,69.24 6.24,26.56 29.89,44.46 56.02,44.46z"/>
   <path class="fil3" d="M57.57 465.85c4.37,0 8.79,-0.52 13.25,-1.54l2.53 -0.61c30.96,-7.29 50.18,-38.28 42.89,-69.27 -7.27,-30.97 -38.28,-50.14 -69.25,-42.89l-2.55 0.61c-30.97,7.26 -50.17,38.27 -42.89,69.24 6.24,26.56 29.89,44.46 56.02,44.46z"/>
  </g>
 </g>
</svg>
